<svg xmlns="http://www.w3.org/2000/svg" width="164.296" height="54.164" viewBox="0 0 164.296 54.164">
  <g id="Group_115052" data-name="Group 115052" transform="translate(0 0)">
    <path id="Path_269708" data-name="Path 269708" d="M167.858,52.3a5.864,5.864,0,0,1-1.386,3.841,4.438,4.438,0,0,1-3.345,1.588H8.3c-2.613,0-4.734-2.427-4.737-5.429V9c0-3,2.123-5.436,4.737-5.436H163.126c2.613,0,4.732,2.434,4.731,5.436V52.3Z" transform="translate(-3.562 -3.561)"/>
    <path id="Path_269709" data-name="Path 269709" d="M72.666,41.673a7.177,7.177,0,0,1,3.419-6.022,7.354,7.354,0,0,0-5.791-3.13c-2.436-.256-4.8,1.457-6.04,1.457-1.266,0-3.177-1.433-5.236-1.39a7.71,7.71,0,0,0-6.49,3.957c-2.806,4.857-.713,12,1.975,15.922,1.345,1.924,2.917,4.07,4.974,3.994,2.013-.082,2.764-1.281,5.193-1.281,2.406,0,3.112,1.281,5.21,1.233,2.16-.033,3.52-1.932,4.818-3.872a15.87,15.87,0,0,0,2.2-4.486A6.944,6.944,0,0,1,72.666,41.673ZM68.7,29.938a7.063,7.063,0,0,0,1.617-5.063,7.2,7.2,0,0,0-4.654,2.407,6.722,6.722,0,0,0-1.66,4.876,5.946,5.946,0,0,0,4.7-2.22Z" transform="translate(-36.454 -16.619)" fill="#fff"/>
    <path id="Path_269711" data-name="Path 269711" d="M183.726,88.737h-2.813l-1.541-4.84h-5.355l-1.468,4.84h-2.738l5.307-16.477H178.4Zm-4.818-6.871-1.393-4.3q-.221-.659-.831-3.1h-.05q-.245,1.051-.783,3.1l-1.37,4.3Zm18.439.784a6.727,6.727,0,0,1-1.647,4.79,4.83,4.83,0,0,1-3.663,1.565,3.668,3.668,0,0,1-3.393-1.685v6.234H186V80.761q0-1.9-.1-3.905h2.322l.147,1.883h.05a4.7,4.7,0,0,1,7.519-.467A6.569,6.569,0,0,1,197.347,82.65Zm-2.69.1a4.9,4.9,0,0,0-.783-2.861,2.705,2.705,0,0,0-2.3-1.173,2.746,2.746,0,0,0-1.772.648,3,3,0,0,0-1.039,1.7,3.447,3.447,0,0,0-.123.8v1.982a3.178,3.178,0,0,0,.8,2.189,2.64,2.64,0,0,0,2.066.893,2.707,2.707,0,0,0,2.322-1.149A5.056,5.056,0,0,0,194.657,82.747Zm16.359-.1a6.727,6.727,0,0,1-1.647,4.79,4.833,4.833,0,0,1-3.665,1.565,3.668,3.668,0,0,1-3.393-1.685v6.234h-2.64V80.761q0-1.9-.1-3.905h2.322l.147,1.883h.05a4.7,4.7,0,0,1,7.52-.467A6.575,6.575,0,0,1,211.016,82.65Zm-2.691.1a4.9,4.9,0,0,0-.784-2.861,2.7,2.7,0,0,0-2.3-1.173,2.758,2.758,0,0,0-1.775.648,3,3,0,0,0-1.038,1.7,3.527,3.527,0,0,0-.124.8v1.982a3.189,3.189,0,0,0,.794,2.189,2.645,2.645,0,0,0,2.068.893,2.7,2.7,0,0,0,2.322-1.149A5.056,5.056,0,0,0,208.325,82.747ZM226.3,84.115a4.4,4.4,0,0,1-1.465,3.424,6.5,6.5,0,0,1-4.49,1.442,7.838,7.838,0,0,1-4.268-1.026l.611-2.2a7.348,7.348,0,0,0,3.815,1.028,3.6,3.6,0,0,0,2.322-.672,2.2,2.2,0,0,0,.834-1.8,2.3,2.3,0,0,0-.686-1.688,6.361,6.361,0,0,0-2.274-1.27q-4.328-1.614-4.33-4.72a4.167,4.167,0,0,1,1.528-3.324,6.044,6.044,0,0,1,4.047-1.3,8,8,0,0,1,3.741.783l-.663,2.152a6.543,6.543,0,0,0-3.167-.758,3.221,3.221,0,0,0-2.185.685,1.959,1.959,0,0,0-.663,1.493,2.018,2.018,0,0,0,.759,1.613,8.552,8.552,0,0,0,2.4,1.27,8.121,8.121,0,0,1,3.13,2,4.175,4.175,0,0,1,1.007,2.858Zm8.752-5.278h-2.911v5.769q0,2.2,1.541,2.2a4.639,4.639,0,0,0,1.173-.123l.073,2a5.984,5.984,0,0,1-2.053.292,3.165,3.165,0,0,1-2.446-.955,4.68,4.68,0,0,1-.881-3.2V78.832h-1.734V76.851h1.734V74.675l2.593-.783v2.958h2.911ZM248.157,82.7a6.516,6.516,0,0,1-1.565,4.5,5.581,5.581,0,0,1-4.352,1.809,5.32,5.32,0,0,1-4.17-1.733,6.319,6.319,0,0,1-1.553-4.376,6.464,6.464,0,0,1,1.6-4.522,5.552,5.552,0,0,1,4.317-1.761,5.432,5.432,0,0,1,4.2,1.736A6.237,6.237,0,0,1,248.157,82.7Zm-2.737.061a5.319,5.319,0,0,0-.707-2.8,2.614,2.614,0,0,0-2.373-1.415,2.652,2.652,0,0,0-2.421,1.415,5.407,5.407,0,0,0-.708,2.853,5.3,5.3,0,0,0,.708,2.8,2.708,2.708,0,0,0,4.772-.024,5.341,5.341,0,0,0,.729-2.83Zm11.324-3.582a4.594,4.594,0,0,0-.832-.073,2.492,2.492,0,0,0-2.153,1.052A3.964,3.964,0,0,0,253.1,82.5v6.234h-2.64V80.6q0-1.871-.077-3.74h2.3l.1,2.273h.073a4.075,4.075,0,0,1,1.32-1.883,3.193,3.193,0,0,1,1.908-.636,4.24,4.24,0,0,1,.66.048Zm11.809,3.057a6.185,6.185,0,0,1-.1,1.2h-7.921a3.445,3.445,0,0,0,1.149,2.692,3.93,3.93,0,0,0,2.591.83,8.763,8.763,0,0,0,3.205-.561l.414,1.831a9.912,9.912,0,0,1-3.984.734,5.777,5.777,0,0,1-4.342-1.624,6.005,6.005,0,0,1-1.577-4.363A6.8,6.8,0,0,1,259.46,78.5a5.061,5.061,0,0,1,4.155-1.906,4.429,4.429,0,0,1,3.89,1.906A6.411,6.411,0,0,1,268.553,82.234Zm-2.518-.685a3.574,3.574,0,0,0-.513-2.029,2.306,2.306,0,0,0-2.1-1.1,2.5,2.5,0,0,0-2.1,1.076,3.942,3.942,0,0,0-.781,2.053Z" transform="translate(-118.963 -48.681)" fill="#fff"/>
    <path id="Path_269712" data-name="Path 269712" d="M176.705,34.81a16.864,16.864,0,0,1-1.9-.1V26.747a14.377,14.377,0,0,1,2.235-.168c3.028,0,4.423,1.49,4.423,3.918C181.465,33.3,179.817,34.81,176.705,34.81Zm.443-7.21a5.3,5.3,0,0,0-1.045.084V33.74a6.853,6.853,0,0,0,.877.036c1.984,0,3.114-1.129,3.114-3.244A2.642,2.642,0,0,0,177.148,27.6Zm8.662,7.27a2.78,2.78,0,0,1-2.813-3,2.844,2.844,0,0,1,2.909-3.088,2.758,2.758,0,0,1,2.813,2.993A2.861,2.861,0,0,1,185.81,34.87Zm.05-5.143c-.938,0-1.538.877-1.538,2.1,0,1.2.613,2.079,1.526,2.079s1.526-.937,1.526-2.1C187.373,30.616,186.773,29.727,185.86,29.727Zm12.592-.828-1.827,5.839h-1.19l-.757-2.536a19.224,19.224,0,0,1-.469-1.886h-.025a12.639,12.639,0,0,1-.468,1.886l-.805,2.536h-1.2L189.989,28.9h1.334l.661,2.776q.234.992.4,1.875h.025a19.229,19.229,0,0,1,.481-1.862l.83-2.787h1.058l.794,2.728c.192.661.348,1.31.469,1.923h.035a16.807,16.807,0,0,1,.4-1.923l.71-2.728h1.274Zm6.725,5.839h-1.3V31.385c0-1.033-.4-1.55-1.178-1.55a1.348,1.348,0,0,0-1.3,1.43v3.473h-1.3v-4.17c0-.516-.012-1.07-.048-1.67H201.2l.061.9h.036a2.1,2.1,0,0,1,1.852-1.02c1.226,0,2.031.937,2.031,2.463v3.5Zm3.579,0h-1.3V26.219h1.3Zm4.732.132a2.78,2.78,0,0,1-2.813-3,2.844,2.844,0,0,1,2.908-3.088,2.757,2.757,0,0,1,2.813,2.993A2.86,2.86,0,0,1,213.488,34.87Zm.048-5.143c-.938,0-1.538.877-1.538,2.1,0,1.2.614,2.079,1.525,2.079s1.526-.937,1.526-2.1c0-1.189-.6-2.078-1.512-2.078Zm7.977,5.011-.094-.672h-.035a1.994,1.994,0,0,1-1.708.8,1.7,1.7,0,0,1-1.79-1.719c0-1.441,1.25-2.187,3.413-2.187v-.108c0-.769-.408-1.154-1.212-1.154a2.734,2.734,0,0,0-1.526.433l-.264-.853a3.734,3.734,0,0,1,2.005-.505c1.526,0,2.3.8,2.3,2.416v2.151a8.81,8.81,0,0,0,.084,1.394h-1.17Zm-.178-2.908c-1.442,0-2.165.349-2.165,1.177a.827.827,0,0,0,.89.913,1.243,1.243,0,0,0,1.274-1.189Zm7.567,2.908-.061-.937h-.036a1.958,1.958,0,0,1-1.875,1.07c-1.408,0-2.451-1.238-2.451-2.98,0-1.826,1.081-3.113,2.558-3.113a1.755,1.755,0,0,1,1.647.794h.026V26.219h1.3v6.945c0,.565.014,1.093.048,1.574H228.9Zm-.192-3.436a1.413,1.413,0,0,0-1.367-1.514c-.962,0-1.551.853-1.551,2.054,0,1.177.611,1.984,1.525,1.984a1.457,1.457,0,0,0,1.393-1.55Zm9.536,3.568a2.779,2.779,0,0,1-2.811-3,2.844,2.844,0,0,1,2.908-3.088,2.757,2.757,0,0,1,2.813,2.993A2.86,2.86,0,0,1,238.247,34.87Zm.048-5.143c-.936,0-1.537.877-1.537,2.1,0,1.2.613,2.079,1.525,2.079s1.526-.937,1.526-2.1C239.811,30.616,239.21,29.727,238.3,29.727Zm9.841,5.011h-1.3V31.385c0-1.033-.4-1.55-1.178-1.55a1.347,1.347,0,0,0-1.3,1.43v3.473h-1.3v-4.17c0-.516-.012-1.07-.048-1.67h1.142l.061.9h.036a2.1,2.1,0,0,1,1.85-1.021c1.226,0,2.032.937,2.032,2.463Zm8.733-4.866h-1.428v2.835c0,.722.25,1.082.756,1.082a2.557,2.557,0,0,0,.576-.061l.036.986a2.876,2.876,0,0,1-1.007.145c-1.023,0-1.635-.565-1.635-2.043V29.872h-.852V28.9h.852v-1.07l1.274-.385V28.9h1.428Zm6.871,4.866h-1.3V31.41c0-1.045-.4-1.574-1.178-1.574a1.273,1.273,0,0,0-1.3,1.382v3.52h-1.3V26.219h1.3v3.508h.026a1.969,1.969,0,0,1,1.756-.95c1.236,0,1.991.961,1.991,2.487Zm7.04-2.608h-3.9a1.676,1.676,0,0,0,1.84,1.73,4.387,4.387,0,0,0,1.574-.276l.2.9a4.877,4.877,0,0,1-1.959.36,2.711,2.711,0,0,1-2.908-2.943,2.852,2.852,0,0,1,2.762-3.136c1.492,0,2.429,1.106,2.429,2.776a2.5,2.5,0,0,1-.045.588Zm-1.19-.925c0-.9-.455-1.538-1.284-1.538a1.539,1.539,0,0,0-1.419,1.538Z" transform="translate(-123.957 -17.79)" fill="#fff"/>
  </g>
</svg>
