<svg id="Group_115051" data-name="Group 115051" xmlns="http://www.w3.org/2000/svg" width="164.297" height="54.164" viewBox="0 0 164.297 54.164">
  <path id="Path_271643" data-name="Path 271643" d="M158.212,54.164H6.085C2.677,54.164,0,51.185,0,47.394V6.771C0,2.979,2.677,0,6.085,0H158.212c3.408,0,6.085,2.979,6.085,6.771V47.394C164.3,51.185,161.62,54.164,158.212,54.164Z"/>
  <g id="Group_115064" data-name="Group 115064" transform="translate(46.25 11.569)">
    <path id="Path_271645" data-name="Path 271645" d="M48.928,11.041a3.418,3.418,0,0,1-.878,2.509,3.89,3.89,0,0,1-6.65-2.76A3.856,3.856,0,0,1,45.29,6.9a3.341,3.341,0,0,1,1.506.376,2.732,2.732,0,0,1,1.129.878l-.627.627A2.34,2.34,0,0,0,45.29,7.9a2.5,2.5,0,0,0-2.008.878,2.585,2.585,0,0,0-.878,2.133,2.585,2.585,0,0,0,.878,2.133,3.231,3.231,0,0,0,2.008.878,2.752,2.752,0,0,0,2.133-.878,2.078,2.078,0,0,0,.627-1.506H45.29v-1h3.639v.5ZM54.7,7.9H51.312v2.384h3.137v.878H51.312V13.55H54.7v1H50.308V7.025H54.7Zm4.141,6.65h-1V7.9H55.7V7.025h5.27V7.9H58.84Zm5.772,0V7.025h1v7.528Zm5.27,0h-1V7.9H66.745V7.025h5.144V7.9H69.756v6.65Zm11.92-1a3.89,3.89,0,0,1-6.65-2.76,3.89,3.89,0,1,1,7.779,0A3.689,3.689,0,0,1,81.8,13.55Zm-4.768-.627a2.961,2.961,0,0,0,2.008.878,2.5,2.5,0,0,0,2.008-.878,3.027,3.027,0,0,0,.878-2.133,2.585,2.585,0,0,0-.878-2.133,2.961,2.961,0,0,0-2.008-.878,2.5,2.5,0,0,0-2.008.878,3.027,3.027,0,0,0-.878,2.133A2.585,2.585,0,0,0,77.034,12.923Zm7.277,1.631V7.025H85.44l3.639,5.9v-5.9h1v7.528h-1l-3.89-6.148v6.148h-.878Z" transform="translate(-41.275 -6.779)" fill="#fff"/>
    <path id="Path_271645_-_Outline" data-name="Path 271645 - Outline" d="M79.067,14.83a3.8,3.8,0,0,1-2.849-1.166,3.8,3.8,0,0,1-1.166-2.849,3.8,3.8,0,0,1,1.166-2.849,4.064,4.064,0,0,1,5.7,0,3.8,3.8,0,0,1,1.166,2.849,3.8,3.8,0,0,1-1.166,2.849A3.8,3.8,0,0,1,79.067,14.83Zm0-7.779A3.731,3.731,0,0,0,75.3,10.815a3.764,3.764,0,1,0,7.528,0,3.731,3.731,0,0,0-3.764-3.764ZM45.315,14.83a3.8,3.8,0,0,1-2.849-1.166A3.8,3.8,0,0,1,41.3,10.815a3.8,3.8,0,0,1,1.166-2.849A3.8,3.8,0,0,1,45.315,6.8a3.48,3.48,0,0,1,1.562.39,2.885,2.885,0,0,1,1.178.921l.057.086-.8.8-.088-.109a2.2,2.2,0,0,0-1.91-.831,2.372,2.372,0,0,0-1.91.831l-.02.02a2.459,2.459,0,0,0-.831,2.035,2.459,2.459,0,0,0,.831,2.035,3.125,3.125,0,0,0,1.929.851,2.627,2.627,0,0,0,2.044-.842,1.935,1.935,0,0,0,.587-1.291H45.19V10.439h3.89v.627a3.53,3.53,0,0,1-.915,2.6A3.8,3.8,0,0,1,45.315,14.83Zm0-7.779a3.731,3.731,0,0,0-3.764,3.764,3.778,3.778,0,0,0,6.436,2.672,3.291,3.291,0,0,0,.842-2.421V10.69H45.441v.753H48.2v.125a2.212,2.212,0,0,1-.664,1.594,2.889,2.889,0,0,1-2.222.915,3.4,3.4,0,0,1-2.086-.906,2.7,2.7,0,0,1-.925-2.231,2.7,2.7,0,0,1,.915-2.222,2.621,2.621,0,0,1,2.1-.915,2.472,2.472,0,0,1,2.016.818l.456-.456a2.748,2.748,0,0,0-1.022-.752A3.232,3.232,0,0,0,45.315,7.051ZM90.234,14.7h-1.2l-3.7-5.841V14.7H84.211V6.925h1.325l3.443,5.58V6.925h1.255Zm-1.06-.251h.809V7.176H89.23V13.39L85.4,7.176h-.934v7.277h.627V8ZM69.907,14.7H68.778V8.055H66.645V6.925h5.4V8.055H69.907Zm-.878-.251h.627V7.8h2.133V7.176H66.9V7.8h2.133Zm-3.262.251H64.512V6.925h1.255Zm-1-.251h.753V7.176h-.753Zm-5.772.251H57.737V8.055H55.6V6.925h5.521V8.055H58.991Zm-1-.251h.753V7.8h2.133V7.176H55.855V7.8h2.133Zm-3.137.251H50.208V6.925h4.642V8.055H51.463v2.133H54.6v1.129H51.463V13.45h3.388Zm-4.391-.251H54.6V13.7H51.212V11.066h3.137v-.627H51.212V7.8H54.6V7.176H50.459Zm28.607-.5a3.1,3.1,0,0,1-2.091-.91,2.7,2.7,0,0,1-.92-2.227,3.161,3.161,0,0,1,.91-2.217,2.619,2.619,0,0,1,2.1-.92,3.1,3.1,0,0,1,2.091.91,2.7,2.7,0,0,1,.92,2.227,3.161,3.161,0,0,1-.91,2.217A2.619,2.619,0,0,1,79.067,13.952Zm0-6.023a2.372,2.372,0,0,0-1.91.831l-.009.01a2.909,2.909,0,0,0-.842,2.044,2.459,2.459,0,0,0,.831,2.035l.01.009a2.84,2.84,0,0,0,1.919.842,2.372,2.372,0,0,0,1.91-.831l.009-.01a2.909,2.909,0,0,0,.842-2.044A2.459,2.459,0,0,0,81,8.78l-.01-.009A2.84,2.84,0,0,0,79.067,7.929Z" transform="translate(-41.3 -6.8)" fill="#fff"/>
  </g>
  <path id="Path_271646" data-name="Path 271646" d="M74.977,23a5.279,5.279,0,0,0-5.4,5.4,5.355,5.355,0,0,0,5.4,5.4,5.279,5.279,0,0,0,5.4-5.4A5.205,5.205,0,0,0,74.977,23Zm0,8.532a3.114,3.114,0,0,1-3.011-3.262A3.114,3.114,0,0,1,74.977,25a3.039,3.039,0,0,1,3.011,3.262A3.114,3.114,0,0,1,74.977,31.529ZM63.308,23a5.279,5.279,0,0,0-5.4,5.4,5.355,5.355,0,0,0,5.4,5.4,5.279,5.279,0,0,0,5.4-5.4A5.205,5.205,0,0,0,63.308,23Zm0,8.532A3.114,3.114,0,0,1,60.3,28.267,3.114,3.114,0,0,1,63.308,25a3.039,3.039,0,0,1,3.011,3.262A3.114,3.114,0,0,1,63.308,31.529Zm-13.927-6.9v2.258h5.4a4.744,4.744,0,0,1-1.255,2.886A5.554,5.554,0,0,1,49.381,31.4a5.842,5.842,0,0,1-5.9-6.023,5.919,5.919,0,0,1,5.9-6.023,6.221,6.221,0,0,1,4.141,1.631l1.631-1.631A8.04,8.04,0,0,0,49.507,17.1,8.464,8.464,0,0,0,41.1,25.381a8.464,8.464,0,0,0,8.407,8.281,7.221,7.221,0,0,0,5.772-2.384,7.553,7.553,0,0,0,2.008-5.27,4.7,4.7,0,0,0-.125-1.38H49.381Zm56.964,1.757A4.875,4.875,0,0,0,101.828,23a5.053,5.053,0,0,0-5.019,5.4,5.251,5.251,0,0,0,5.27,5.4A5.147,5.147,0,0,0,106.47,31.4l-1.757-1.255a3.058,3.058,0,0,1-2.635,1.506,2.722,2.722,0,0,1-2.635-1.631l7.152-3.011Zm-7.277,1.757A3.048,3.048,0,0,1,101.828,25a2.219,2.219,0,0,1,2.008,1.129l-4.768,2.008Zm-5.9,5.144h2.384V17.6H93.17Zm-3.764-9.159a4.131,4.131,0,0,0-2.886-1.255,5.391,5.391,0,0,0-5.144,5.4,5.2,5.2,0,0,0,5.144,5.27,3.6,3.6,0,0,0,2.76-1.255h.125v.753c0,2.008-1.129,3.137-2.886,3.137a2.788,2.788,0,0,1-2.635-1.882l-2.008.878A5.176,5.176,0,0,0,86.646,38.3c2.76,0,5.019-1.631,5.019-5.521V23.248H89.406Zm-2.76,7.4a3.114,3.114,0,0,1-3.011-3.262A3.114,3.114,0,0,1,86.646,25a3.019,3.019,0,0,1,2.886,3.262A3.019,3.019,0,0,1,86.646,31.529ZM117.261,17.6h-5.646V33.286H114v-5.9h3.262a4.9,4.9,0,1,0,0-9.787Zm.125,7.528H114v-5.4h3.388a2.756,2.756,0,0,1,2.76,2.635,2.871,2.871,0,0,1-2.76,2.76Zm14.429-2.258a4.217,4.217,0,0,0-4.141,2.384l2.133.878A2.216,2.216,0,0,1,131.941,25a2.358,2.358,0,0,1,2.509,2.008v.125a4.977,4.977,0,0,0-2.384-.627c-2.258,0-4.517,1.255-4.517,3.513a3.676,3.676,0,0,0,3.89,3.513,3.531,3.531,0,0,0,3.011-1.506h.125v1.255h2.258V27.263a4.748,4.748,0,0,0-5.019-4.391Zm-.251,8.657c-.753,0-1.882-.376-1.882-1.38,0-1.255,1.38-1.631,2.509-1.631a4.852,4.852,0,0,1,2.133.5A2.922,2.922,0,0,1,131.564,31.529Zm13.174-8.281L142.1,30.023h-.125l-2.76-6.775h-2.509l4.141,9.536-2.384,5.27h2.384l6.4-14.806h-2.509ZM123.66,33.286h2.384V17.6H123.66Z" transform="translate(5.381 6.086)" fill="#fff"/>
  <g id="Group_115050" data-name="Group 115050" transform="translate(12.547 11.543)">
    <path id="Path_271647" data-name="Path 271647" d="M10.5,7.5A2.453,2.453,0,0,0,10,9.257V36.986a2.482,2.482,0,0,0,.627,1.757l.125.125L26.311,23.309v-.251Z" transform="translate(-10 -7.087)" fill="#00d6ff"/>
    <path id="Path_271648" data-name="Path 271648" d="M28.044,26.465,22.9,21.321v-.376L28.044,15.8l.125.125,6.148,3.513c1.757,1,1.757,2.635,0,3.639Z" transform="translate(-6.714 -4.971)" fill="gold"/>
    <path id="Path_271649" data-name="Path 271649" d="M31.354,25.27,26.084,20,10.4,35.684c.627.627,1.506.627,2.635.125L31.354,25.27" transform="translate(-9.898 -3.905)" fill="#f4324a"/>
    <path id="Path_271650" data-name="Path 271650" d="M31.354,18,13.035,7.584a2.034,2.034,0,0,0-2.635.125L26.084,23.268,31.354,18Z" transform="translate(-9.898 -7.171)" fill="#0c8c4b"/>
  </g>
  <path id="Path_271651" data-name="Path 271651" d="M31.228,24.1,13.035,34.389a2.052,2.052,0,0,1-2.509,0l-.125.125.125.125a2.052,2.052,0,0,0,2.509,0Z" transform="translate(2.649 8.683)" fill="#fff" opacity="0.2"/>
  <path id="Path_271652" data-name="Path 271652" d="M10.5,35.433a2.453,2.453,0,0,1-.5-1.757V33.8a2.482,2.482,0,0,0,.627,1.757v-.125H10.5Zm27.1-13.8L31.33,25.144l.125.125L37.6,21.757A2.086,2.086,0,0,0,38.858,20C38.858,20.627,38.356,21.129,37.6,21.631Z" transform="translate(2.547 7.637)" fill="#fff" opacity="0.12"/>
  <path id="Path_271653" data-name="Path 271653" d="M13.137,7.715,37.6,21.643c.753.5,1.255,1,1.255,1.631A2.086,2.086,0,0,0,37.6,21.517L13.137,7.59C11.38,6.586,10,7.339,10,9.346v.125C10,7.59,11.38,6.712,13.137,7.715Z" transform="translate(2.547 4.364)" fill="#fff" opacity="0.25"/>
</svg>
